<?xml version="1.0" encoding="utf-8"?>
<!-- Generator: Adobe Illustrator 22.0.1, SVG Export Plug-In . SVG Version: 6.00 Build 0)  -->
<svg version="1.1" id="图层_1" xmlns="http://www.w3.org/2000/svg" xmlns:xlink="http://www.w3.org/1999/xlink" x="0px" y="0px"
	 viewBox="0 0 243 184" style="enable-background:new 0 0 243 184;" xml:space="preserve">
<style result="text/css">
	.st0{fill:url(#路径_7_);}
	.st1{fill:url(#路径_8_);}
	.st2{fill:url(#路径_9_);}
	.st3{fill:url(#路径_10_);}
	.st4{fill:url(#路径_11_);}
	.st5{fill:url(#路径_12_);}
	.st6{fill:url(#路径_13_);}
</style>
<name>编组 3</name>
<desc>Created with Sketch.</desc>
<linearGradient id="路径_7_" gradientUnits="userSpaceOnUse" x1="-224.4281" y1="332.361" x2="-223.8736" y2="332.2764" gradientTransform="matrix(69.179 0 0 -15.413 15544.8086 5201.1221)">
	<stop  offset="0" style="stop-color:#E3E5F7">
		<animate attributeName="stop-color" values="#E3E5F7;#999ccc;#4d508e;#2d3476;#2d3476;#2d3476;#2d3476" dur="4s" repeatCount="indefinite" />
	</stop>
	<stop  offset="33%" style="stop-color:#E3E5F7">
		<animate attributeName="stop-color" values="#E3E5F7;#E3E5F7;#999ccc;#4d508e;#2d3476;#2d3476;#2d3476;" dur="4s" repeatCount="indefinite" />
	</stop>
	<stop  offset="66%" style="stop-color:#E3E5F7">
		<animate attributeName="stop-color" values="#E3E5F7;#E3E5F7;#E3E5F7;#999ccc;#4d508e;#2d3476;#2d3476;" dur="4s" repeatCount="indefinite" />
	</stop>
	<stop  offset="100%" style="stop-color:#E3E5F7">
		<animate attributeName="stop-color" values="#E3E5F7;#E3E5F7;#E3E5F7;#E3E5F7;#999ccc;#4d508e;#2d3476;" dur="4s" repeatCount="indefinite" />
	</stop>
</linearGradient>
<path id="路径" class="st0" d="M23.5,86.2L0.2,72.1C0.1,72.1,0,72,0,71.9c0-0.1,0.1-0.2,0.2-0.3s0.2,0,0.3,0l23.3,14.1
	c1.2,0.7,2.7,0.7,3.9,0.1L53,72c1.4-0.8,3.1-0.7,4.5,0.1L69,79c0.1,0.1,0.2,0.3,0.1,0.4c-0.1,0.1-0.3,0.2-0.4,0.1l-11.5-6.9
	c-1.2-0.7-2.7-0.8-3.9-0.1L28,86.3c-0.7,0.4-1.4,0.6-2.2,0.5C25,86.9,24.2,86.7,23.5,86.2z"/>
<linearGradient id="路径_8_" gradientUnits="userSpaceOnUse" x1="-223.1933" y1="336.6104" x2="-222.1933" y2="336.9535" gradientTransform="matrix(47.7037 0 0 -27.4122 10677.4902 9333.4307)">
	<stop  offset="0" style="stop-color:#E3E5F7">
		<animate attributeName="stop-color" values="#E3E5F7;#999ccc;#4d508e;#2d3476;#2d3476;#2d3476;#2d3476" dur="4s" repeatCount="indefinite" />
	</stop>
	<stop  offset="33%" style="stop-color:#E3E5F7">
		<animate attributeName="stop-color" values="#E3E5F7;#E3E5F7;#999ccc;#4d508e;#2d3476;#2d3476;#2d3476;" dur="4s" repeatCount="indefinite" />
	</stop>
	<stop  offset="66%" style="stop-color:#E3E5F7">
		<animate attributeName="stop-color" values="#E3E5F7;#E3E5F7;#E3E5F7;#999ccc;#4d508e;#2d3476;#2d3476;" dur="4s" repeatCount="indefinite" />
	</stop>
	<stop  offset="100%" style="stop-color:#E3E5F7">
		<animate attributeName="stop-color" values="#E3E5F7;#E3E5F7;#E3E5F7;#E3E5F7;#999ccc;#4d508e;#2d3476;" dur="4s" repeatCount="indefinite" />
	</stop>
</linearGradient>
<path id="路径_1_" class="st1" d="M29.4,115.4c-0.1,0-0.2-0.1-0.3-0.1c0-0.1-0.1-0.2,0-0.2c0-0.1,0.1-0.1,0.1-0.2l47.1-26.8
	c0.1-0.1,0.3,0,0.4,0.1c0,0.1,0.1,0.2,0,0.2s-0.1,0.1-0.1,0.2l-47.1,26.8C29.5,115.4,29.4,115.4,29.4,115.4L29.4,115.4z"/>
<linearGradient id="路径_9_" gradientUnits="userSpaceOnUse" x1="-222.9374" y1="334.296" x2="-223.6584" y2="334.4484" gradientTransform="matrix(56.1129 0 0 -19.2828 12752.2939 6499.8442)">
	<stop  offset="0" style="stop-color:#E3E5F7">
		<animate attributeName="stop-color" values="#E3E5F7;#999ccc;#4d508e;#2d3476;#2d3476;#2d3476;#2d3476" dur="4s" repeatCount="indefinite" />
	</stop>
	<stop  offset="33%" style="stop-color:#E3E5F7">
		<animate attributeName="stop-color" values="#E3E5F7;#E3E5F7;#999ccc;#4d508e;#2d3476;#2d3476;#2d3476;" dur="4s" repeatCount="indefinite" />
	</stop>
	<stop  offset="66%" style="stop-color:#E3E5F7">
		<animate attributeName="stop-color" values="#E3E5F7;#E3E5F7;#E3E5F7;#999ccc;#4d508e;#2d3476;#2d3476;" dur="4s" repeatCount="indefinite" />
	</stop>
	<stop  offset="100%" style="stop-color:#E3E5F7">
		<animate attributeName="stop-color" values="#E3E5F7;#E3E5F7;#E3E5F7;#E3E5F7;#999ccc;#4d508e;#2d3476;" dur="4s" repeatCount="indefinite" />
	</stop>
</linearGradient>
<path id="路径_2_" class="st2" d="M242.4,62.1c-0.1,0-0.1,0-0.2,0l-30.1-18c-1.4-0.8-3.2-0.8-4.6,0l-20.5,12c-0.1,0-0.2,0.1-0.2,0
	s-0.1-0.1-0.2-0.1c-0.1-0.1,0-0.3,0.1-0.4l20.5-12.1c1.6-1,3.6-1,5.2,0l30.1,18c0.1,0.1,0.2,0.3,0.1,0.4
	C242.6,62,242.5,62.1,242.4,62.1L242.4,62.1z"/>
<linearGradient id="路径_10_" gradientUnits="userSpaceOnUse" x1="-222.1227" y1="338.7337" x2="-223.2627" y2="338.1133" gradientTransform="matrix(47.315 0 0 -38.5566 10720.4287 13068.8525)">
	<stop  offset="0" style="stop-color:#E3E5F7">
		<animate attributeName="stop-color" values="#E3E5F7;#999ccc;#4d508e;#2d3476;#2d3476;#2d3476;#2d3476" dur="4s" repeatCount="indefinite" />
	</stop>
	<stop  offset="33%" style="stop-color:#E3E5F7">
		<animate attributeName="stop-color" values="#E3E5F7;#E3E5F7;#999ccc;#4d508e;#2d3476;#2d3476;#2d3476;" dur="4s" repeatCount="indefinite" />
	</stop>
	<stop  offset="66%" style="stop-color:#E3E5F7">
		<animate attributeName="stop-color" values="#E3E5F7;#E3E5F7;#E3E5F7;#999ccc;#4d508e;#2d3476;#2d3476;" dur="4s" repeatCount="indefinite" />
	</stop>
	<stop  offset="100%" style="stop-color:#E3E5F7">
		<animate attributeName="stop-color" values="#E3E5F7;#E3E5F7;#E3E5F7;#E3E5F7;#999ccc;#4d508e;#2d3476;" dur="4s" repeatCount="indefinite" />
	</stop>
</linearGradient>
<path id="路径_3_" class="st3" d="M160.9,39.5l-0.3-0.5l44.3-25.6c1.5-0.9,2.4-2.4,2.4-4.2V0.9h0.6v8.3c0,1.9-1,3.7-2.7,4.7
	L160.9,39.5z"/>
<linearGradient id="路径_11_" gradientUnits="userSpaceOnUse" x1="-224.9183" y1="340.0881" x2="-223.8367" y2="339.6078" gradientTransform="matrix(76.6464 0 0 -59.9598 17256.4512 20417.4629)">
	<stop  offset="0" style="stop-color:#E3E5F7">
		<animate attributeName="stop-color" values="#E3E5F7;#999ccc;#4d508e;#2d3476;#2d3476;#2d3476;#2d3476" dur="4s" repeatCount="indefinite" />
	</stop>
	<stop  offset="33%" style="stop-color:#E3E5F7">
		<animate attributeName="stop-color" values="#E3E5F7;#E3E5F7;#999ccc;#4d508e;#2d3476;#2d3476;#2d3476;" dur="4s" repeatCount="indefinite" />
	</stop>
	<stop  offset="66%" style="stop-color:#E3E5F7">
		<animate attributeName="stop-color" values="#E3E5F7;#E3E5F7;#E3E5F7;#999ccc;#4d508e;#2d3476;#2d3476;" dur="4s" repeatCount="indefinite" />
	</stop>
	<stop  offset="100%" style="stop-color:#E3E5F7">
		<animate attributeName="stop-color" values="#E3E5F7;#E3E5F7;#E3E5F7;#E3E5F7;#999ccc;#4d508e;#2d3476;" dur="4s" repeatCount="indefinite" />
	</stop>
</linearGradient>
<path id="路径_4_" class="st4" d="M85.3,68.2L10.2,23c-0.7-0.4-1.1-1.1-1.1-1.9c0-0.8,0.4-1.5,1.1-1.9l8.7-5
	c0.7-0.4,1.1-1.1,1.1-1.8V8.6l0.6-0.4v4c0,1-0.5,1.9-1.4,2.3l-8.7,5C10,19.9,9.6,20.4,9.6,21c0,0.6,0.3,1.1,0.8,1.4l75.2,45.3
	L85.3,68.2z"/>
<linearGradient id="路径_12_" gradientUnits="userSpaceOnUse" x1="-219.9574" y1="340.7997" x2="-219.9725" y2="341.438" gradientTransform="matrix(30.2799 0 0 -100.5414 6843.7217 34411.6211)">
	<stop  offset="0" style="stop-color:#E3E5F7">
		<animate attributeName="stop-color" values="#E3E5F7;#999ccc;#4d508e;#2d3476;#2d3476;#2d3476;#2d3476" dur="4s" repeatCount="indefinite" />
	</stop>
	<stop  offset="33%" style="stop-color:#E3E5F7">
		<animate attributeName="stop-color" values="#E3E5F7;#E3E5F7;#999ccc;#4d508e;#2d3476;#2d3476;#2d3476;" dur="4s" repeatCount="indefinite" />
	</stop>
	<stop  offset="66%" style="stop-color:#E3E5F7">
		<animate attributeName="stop-color" values="#E3E5F7;#E3E5F7;#E3E5F7;#999ccc;#4d508e;#2d3476;#2d3476;" dur="4s" repeatCount="indefinite" />
	</stop>
	<stop  offset="100%" style="stop-color:#E3E5F7">
		<animate attributeName="stop-color" values="#E3E5F7;#E3E5F7;#E3E5F7;#E3E5F7;#999ccc;#4d508e;#2d3476;" dur="4s" repeatCount="indefinite" />
	</stop>
</linearGradient>
<path id="路径_5_" class="st5" d="M175.7,183.5c-0.8,0-1.5-0.2-2.2-0.6c-1.4-0.8-2.2-2.2-2.2-3.8v-55.5c0-3.2,1.7-6.2,4.5-7.9
	l20.9-12.2c0.6-0.3,0.9-1,0.9-1.6c0-0.7-0.3-1.3-0.9-1.6l-28.6-16.8c-0.1-0.1-0.2-0.3-0.1-0.4c0.1-0.1,0.3-0.2,0.4-0.1L197,99.8
	c0.7,0.4,1.2,1.2,1.2,2.1s-0.5,1.7-1.2,2.1l-20.9,12.2c-2.6,1.5-4.2,4.3-4.2,7.4V179c0,1.4,0.7,2.6,1.9,3.3s2.6,0.7,3.8,0l6.3-3.6
	c1.6-0.9,2.6-2.7,2.6-4.5v-22.6c0-1.7,0.9-3.2,2.3-4l6.1-3.5c0.1,0,0.1-0.1,0.2,0s0.1,0.1,0.2,0.1c0.1,0.1,0,0.3-0.1,0.4l-6.1,3.5
	c-1.2,0.7-2,2-2,3.5v22.7c0,2.1-1.1,4-2.9,5.1l-6.3,3.6C177.3,183.3,176.5,183.5,175.7,183.5z"/>
<linearGradient id="路径_13_" gradientUnits="userSpaceOnUse" x1="-223.4962" y1="338.1664" x2="-222.2419" y2="338.712" gradientTransform="matrix(48.9021 0 0 -38.2654 11013.2432 13075.2178)">
	<stop  offset="0" style="stop-color:#E3E5F7">
		<animate attributeName="stop-color" values="#E3E5F7;#999ccc;#4d508e;#2d3476;#2d3476;#2d3476;#2d3476" dur="4s" repeatCount="indefinite" />
	</stop>
	<stop  offset="33%" style="stop-color:#E3E5F7">
		<animate attributeName="stop-color" values="#E3E5F7;#E3E5F7;#999ccc;#4d508e;#2d3476;#2d3476;#2d3476;" dur="4s" repeatCount="indefinite" />
	</stop>
	<stop  offset="66%" style="stop-color:#E3E5F7">
		<animate attributeName="stop-color" values="#E3E5F7;#E3E5F7;#E3E5F7;#999ccc;#4d508e;#2d3476;#2d3476;" dur="4s" repeatCount="indefinite" />
	</stop>
	<stop  offset="100%" style="stop-color:#E3E5F7">
		<animate attributeName="stop-color" values="#E3E5F7;#E3E5F7;#E3E5F7;#E3E5F7;#999ccc;#4d508e;#2d3476;" dur="4s" repeatCount="indefinite" />
	</stop>
</linearGradient>
<path id="路径_6_" class="st6" d="M91.6,145.3c0-0.1-0.1-0.2,0-0.2c0-0.1,0.1-0.1,0.1-0.2l47.1-26.8c0.6-0.4,1-1,1-1.8
	c0-0.7-0.4-1.4-1-1.8l-11.4-6.8c-0.1,0-0.1-0.1-0.1-0.2s0-0.2,0-0.2c0.1-0.1,0.3-0.2,0.4-0.1l11.4,6.8c0.8,0.5,1.3,1.4,1.3,2.3
	c0,0.9-0.5,1.8-1.3,2.3L92,145.4c0,0-0.1,0-0.1,0C91.8,145.4,91.7,145.4,91.6,145.3z"/>
</svg>
